#!OML:ASF E:\motion texture\Top Level 1\Subject 1\Session 1\male.ASF
:FULLY-SPECIFIED
:DEGREES
300
root 16.244 17.5623 5.05253 380.269 -65.5976 -374.263
lowerback -0.515026 6.16757 -0.334781
upperback 0.843116 8.23851 -2.44659
thorax 1.46612 4.12203 -2.15485
lowerneck -11.3403 -12.1263 -14.8353
upperneck 4.45668 -16.0709 19.2496
head 6.0746 -7.31351 6.81128
rclavicle 5.36719e-014 1.11319e-014
rhumerus 26.8592 64.836 -67.7298
rradius 66.4442
rwrist 16.5756
rhand -26.9535 -29.1756
rfingers 7.12502
rthumb -0.375189 -59.155
lclavicle 5.36719e-014 1.11319e-014
lhumerus -14.4173 -18.7193 91.4009
lradius 85.0122
lwrist 41.4914
lhand -17.5366 54.5485
lfingers 7.12502
lthumb 8.71755 84.3485
rfemur -19.1308 -15.6771 29.1889
rtibia 58.4273
rfoot -1.95402 -23.3063
rtoes 2.54876
lfemur -29.0792 -9.59946 -9.34102
ltibia 28.1526
lfoot -5.152 -2.86196
ltoes -6.14374
301
root 16.1057 17.5754 5.09263 379.659 -65.59 -373.707
lowerback -0.509878 6.08256 -0.559979
upperback 0.903188 8.12727 -2.37203
thorax 1.47863 4.06322 -1.95828
lowerneck -11.3161 -12.141 -14.8837
upperneck 4.5876 -16.1022 19.2239
head 6.11732 -7.32757 6.80589
rclavicle -6.20208e-014 -1.59028e-015
rhumerus 24.6767 64.6116 -68.9886
rradius 67.3638
rwrist 16.6064
rhand -27.0564 -29.1095
rfingers 7.12502
rthumb -0.474595 -59.0888
lclavicle -6.20208e-014 -1.59028e-015
lhumerus -15.1963 -19.606 91.6935
lradius 85.3151
lwrist 41.3651
lhand -17.1143 54.1182
lfingers 7.12502
lthumb 9.12506 83.9008
rfemur -19.981 -15.8549 28.7037
rtibia 59.0825
rfoot -1.80493 -23.449
rtoes 3.22557
lfemur -28.4352 -9.80628 -9.69824
ltibia 28.1972
lfoot -5.59208 -2.76372
ltoes -6.0902
302
root 15.9686 17.5885 5.13213 379.062 -65.5903 -373.165
lowerback -0.503041 5.98991 -0.772822
upperback 0.955508 8.00568 -2.29663
thorax 1.48465 3.99931 -1.76825
lowerneck -11.306 -12.1453 -14.9263
upperneck 4.73531 -16.1181 19.1812
head 6.16271 -7.3336 6.79589
rclavicle -5.74488e-014 5.40694e-014
rhumerus 22.6589 64.3079 -70.0762
rradius 68.3307
rwrist 16.634
rhand -27.1813 -29.0597
rfingers 7.12502
rthumb -0.595213 -59.0386
lclavicle -5.74488e-014 5.40694e-014
lhumerus -15.9156 -20.4689 91.9965
lradius 85.6279
lwrist 41.1582
lhand -16.6736 53.6372
lfingers 7.12502
lthumb 9.5503 83.4008
rfemur -20.8269 -16.01 28.2162
rtibia 59.6294
rfoot -1.71771 -23.5966
rtoes 3.85306
lfemur -27.7714 -10.0032 -10.0497
ltibia 28.2086
lfoot -6.04176 -2.65254
ltoes -6.08396
303
root 15.8327 17.6014 5.17098 378.478 -65.5987 -372.637
lowerback -0.493883 5.88933 -0.974017
upperback 0.999808 7.87329 -2.21993
thorax 1.48349 3.93012 -1.58396
lowerneck -11.3149 -12.1402 -14.9611
upperneck 4.90448 -16.1197 19.1159
head 6.21248 -7.33199 6.77868
rclavicle 1.19072e-013 -1.59028e-014
rhumerus 20.8346 63.936 -70.9608
rradius 69.35
rwrist 16.6541
rhand -27.3296 -29.0328
rfingers 7.12502
rthumb -0.73846 -59.0113
lclavicle 1.19072e-013 -1.59028e-014
lhumerus -16.5735 -21.3033 92.304
lradius 85.9487
lwrist 40.8662
lhand -16.2214 53.1005
lfingers 7.12502
lthumb 9.98659 82.8435
rfemur -21.665 -16.1413 27.7262
rtibia 60.0627
rfoot -1.69205 -23.747
rtoes 4.43353
lfemur -27.0905 -10.1931 -10.3951
ltibia 28.1878
lfoot -6.49132 -2.5277
ltoes -6.10974
304
root 15.6981 17.614 5.20911 377.901 -65.6165 -372.114
lowerback -0.484635 5.78276 -1.16826
upperback 1.03595 7.73276 -2.14229
thorax 1.47581 3.85696 -1.40288
lowerneck -11.3346 -12.1252 -14.9916
upperneck 5.08712 -16.1063 19.0351
head 6.26375 -7.32291 6.75767
rclavicle -4.6118e-014 -3.97569e-015
rhumerus 19.1961 63.4901 -71.6554
rradius 70.415
rwrist 16.6788
rhand -27.5018 -29.0105
rfingers 7.12502
rthumb -0.904723 -58.9884
lclavicle -4.6118e-014 -3.97569e-015
lhumerus -17.1704 -22.1107 92.6114
lradius 86.2771
lwrist 40.4857
lhand -15.7532 52.5059
lfingers 7.12502
lthumb 10.4383 82.2268
rfemur -22.492 -16.2473 27.2311
rtibia 60.3752
rfoot -1.7206 -23.8971
rtoes 4.96655
lfemur -26.3951 -10.3759 -10.7374
ltibia 28.1357
lfoot -6.9367 -2.39569
ltoes -6.16159
305
root 15.5647 17.6262 5.24647 377.33 -65.6428 -371.595
lowerback -0.475247 5.67008 -1.35623
upperback 1.06363 7.58391 -2.06412
thorax 1.4613 3.77978 -1.22504
lowerneck -11.3685 -12.1014 -15.0145
upperneck 5.28531 -16.0791 18.9343
head 6.31718 -7.30684 6.73051
rclavicle -5.98342e-014 3.97569e-014
rhumerus 17.7565 62.9777 -72.1474
rradius 71.5287
rwrist 16.7074
rhand -27.6977 -29.0087
rfingers 7.12502
rthumb -1.09391 -58.9856
lclavicle -5.98342e-014 3.97569e-014
lhumerus -17.7054 -22.888 92.9113
lradius 86.6122
lwrist 40.015
lhand -15.271 51.848
lfingers 7.12502
lthumb 10.9034 81.5449
rfemur -23.3053 -16.3289 26.7303
rtibia 60.5633
rfoot -1.8036 -24.0459
rtoes 5.4632
lfemur -25.6891 -10.5532 -11.0771
ltibia 28.0543
lfoot -7.37924 -2.26026
ltoes -6.24817
306
root 15.4323 17.6379 5.283 376.766 -65.6778 -371.079
lowerback -0.46511 5.55052 -1.53657
upperback 1.0832 7.42569 -1.98592
thorax 1.44029 3.69812 -1.0517
lowerneck -11.4191 -12.0682 -15.0318
upperneck 5.49928 -16.0372 18.8161
head 6.37365 -7.2832 6.69837
rclavicle 5.58585e-014 -1.19271e-014
rhumerus 16.5285 62.4063 -72.4278
rradius 72.6932
rwrist 16.7343
rhand -27.9152 -29.0488
rfingers 7.12502
rthumb -1.30397 -59.0246
lclavicle 5.58585e-014 -1.19271e-014
lhumerus -18.1773 -23.6298 93.1936
lradius 86.9528
lwrist 39.451
lhand -14.7737 51.1228
lfingers 7.12502
lthumb 11.383 80.7938
rfemur -24.1002 -16.3858 26.2242
rtibia 60.621
rfoot -1.93438 -24.1879
rtoes 5.91737
lfemur -24.974 -10.7234 -11.4139
ltibia 27.9452
lfoot -7.81344 -2.11653
ltoes -6.37148
307
root 15.301 17.649 5.31866 376.205 -65.7205 -370.564
lowerback -0.45462 5.42436 -1.71039
upperback 1.09426 7.25845 -1.90786
thorax 1.41255 3.61217 -0.882344
lowerneck -11.4822 -12.0257 -15.043
upperneck 5.7261 -15.9807 18.6809
head 6.43164 -7.2524 6.66158
rclavicle 3.45885e-014 -4.21423e-014
rhumerus 15.5061 61.7775 -72.5051
rradius 73.9072
rwrist 16.7587
rhand -28.1504 -29.1118
rfingers 7.12502
rthumb -1.53119 -59.086
lclavicle 3.45885e-014 -4.21423e-014
lhumerus -18.5886 -24.3337 93.4522
lradius 87.2976
lwrist 38.7912
lhand -14.2621 50.3265
lfingers 7.12502
lthumb 11.8764 79.9697
rfemur -24.8728 -16.4185 25.7118
rtibia 60.5441
rfoot -2.10822 -24.3189
rtoes 6.33125
lfemur -24.2524 -10.8872 -11.749
ltibia 27.8111
lfoot -8.23506 -1.9625
ltoes -6.523
308
root 15.1707 17.6595 5.35339 375.652 -65.7703 -370.051
lowerback -0.444031 5.29387 -1.87792
upperback 1.09738 7.08525 -1.8296
thorax 1.37879 3.52348 -0.716343
lowerneck -11.5577 -11.9761 -15.0451
upperneck 5.96314 -15.9125 18.5278
head 6.49053 -7.21595 6.61884
rclavicle -8.28932e-014 -7.95139e-016
rhumerus 14.685 61.089 -72.3848
rradius 75.1705
rwrist 16.7802
rhand -28.3986 -29.2215
rfingers 7.12502
rthumb -1.77087 -59.1939
lclavicle -8.28932e-014 -7.95139e-016
lhumerus -18.937 -25.0029 93.6813
lradius 87.6434
lwrist 38.0355
lhand -13.7408 49.4587
lfingers 7.12502
lthumb 12.379 79.0721
rfemur -25.6188 -16.4264 25.1954
rtibia 60.3299
rfoot -2.3201 -24.4341
rtoes 6.7158
lfemur -23.5259 -11.0435 -12.0803
ltibia 27.6543
lfoot -8.64583 -1.8067
ltoes -6.68228
309
root 15.0412 17.6693 5.38718 375.104 -65.8269 -369.54
lowerback -0.433662 5.15837 -2.03872
upperback 1.09273 6.90517 -1.75181
thorax 1.33953 3.43163 -0.55455
lowerneck -11.6455 -11.919 -15.0404
upperneck 6.20908 -15.832 18.3601
head 6.55043 -7.17361 6.57171
rclavicle -1.39149e-013 2.38542e-014
rhumerus 14.0614 60.3442 -72.0752
rradius 76.4828
rwrist 16.7956
rhand -28.6589 -29.3652
rfingers 7.12502
rthumb -2.02228 -59.3353
lclavicle -1.39149e-013 2.38542e-014
lhumerus -19.2226 -25.6321 93.8726
lradius 87.9877
lwrist 37.1823
lhand -13.207 48.522
lfingers 7.12502
lthumb 12.8937 78.1037
rfemur -26.3358 -16.4099 24.6741
rtibia 59.9766
rfoot -2.56571 -24.5308
rtoes 7.06188
lfemur -22.7983 -11.1915 -12.4086
ltibia 27.4793
lfoot -9.04313 -1.64942
ltoes -6.84543
310
root 14.9125 17.6785 5.41997 374.56 -65.8893 -369.028
lowerback -0.42249 5.01707 -2.19156
upperback 1.08062 6.71714 -1.67522
thorax 1.29477 3.33611 -0.398439
lowerneck -11.7466 -11.8544 -15.03
upperneck 6.46383 -15.7391 18.1799
head 6.61181 -7.12519 6.52102
rclavicle -3.83654e-014 -1.59028e-014
rhumerus 13.6288 59.5449 -71.59
rradius 77.8423
rwrist 16.8017
rhand -28.9318 -29.5415
rfingers 7.12502
rthumb -2.28581 -59.509
lclavicle -3.83654e-014 -1.59028e-014
lhumerus -19.4465 -26.2154 94.0179
lradius 88.3276
lwrist 36.2314
lhand -12.6658 47.5132
lfingers 7.12502
lthumb 13.4154 77.0613
rfemur -27.0194 -16.369 24.1482
rtibia 59.4832
rfoot -2.83977 -24.6047
rtoes 7.37301
lfemur -22.07 -11.3294 -12.7336
ltibia 27.2881
lfoot -9.42789 -1.49204
ltoes -7.01482
311
root 14.7844 17.6869 5.45174 374.022 -65.9572 -368.518
lowerback -0.410685 4.87031 -2.33504
upperback 1.06099 6.52156 -1.59995
thorax 1.24471 3.23717 -0.248821
lowerneck -11.8589 -11.7823 -15.0151
upperneck 6.72533 -15.6337 17.9896
head 6.67414 -7.0709 6.46784
rclavicle 2.20651e-014 -2.62396e-014
rhumerus 13.3765 58.6896 -70.9443
rradius 79.2453
rwrist 16.7995
rhand -29.2064 -29.7565
rfingers 7.12502
rthumb -2.55103 -59.7209
lclavicle 2.20651e-014 -2.62396e-014
lhumerus -19.6114 -26.7497 94.1107
lradius 88.662
lwrist 35.1882
lhand -12.1265 46.4402
lfingers 7.12502
lthumb 13.9351 75.9532
rfemur -27.6679 -16.3032 23.6186
rtibia 58.8514
rfoot -3.13675 -24.6537
rtoes 7.64188
lfemur -21.3427 -11.4572 -13.0538
ltibia 27.0819
lfoot -9.79999 -1.33648
ltoes -7.18812
312
root 14.6569 17.6945 5.4825 373.492 -66.0298 -368.01
lowerback -0.397989 4.72003 -2.46959
upperback 1.03438 6.32103 -1.52568
thorax 1.18963 3.1361 -0.105096
lowerneck -11.9806 -11.7042 -14.9936
upperneck 6.99154 -15.5184 17.7882
head 6.7367 -7.01203 6.41125
rclavicle 2.0276e-014 -1.03368e-014
rhumerus 13.2932 57.7753 -70.1498
rradius 80.6918
rwrist 16.7866
rhand -29.486 -30.0131
rfingers 7.12502
rthumb -2.82104 -59.9742
lclavicle 2.0276e-014 -1.03368e-014
lhumerus -19.72 -27.2371 94.1481
lradius 88.9876
lwrist 34.056
lhand -11.5856 45.3023
lfingers 7.12502
lthumb 14.4563 74.7788
rfemur -28.2782 -16.2132 23.0859
rtibia 58.0835
rfoot -3.45085 -24.6796
rtoes 7.88798
lfemur -20.6162 -11.5741 -13.3684
ltibia 26.8614
lfoot -10.1597 -1.18413
ltoes -7.36607
